<svg width="24" height="24" viewBox="0 0 24 24" fill="none" xmlns="http://www.w3.org/2000/svg">
<path d="M2.43627 5.14671C2 5.6433 2 6.49473 2 8.19758V17.5908C2 18.7968 2 19.3998 2.3146 19.8538C2.62919 20.3077 3.17921 20.4984 4.27924 20.8798L5.57343 21.3284C6.27436 21.5715 6.81371 21.7584 7.26633 21.8788C7.5616 21.9574 7.83333 21.7256 7.83333 21.4201V6.26995C7.83333 6.02103 7.64964 5.81096 7.40837 5.74976C7.01914 5.65103 6.55127 5.48882 5.91002 5.26651C4.35676 4.72802 3.58014 4.45878 2.98922 4.7322C2.77941 4.82927 2.59116 4.97039 2.43627 5.14671Z" fill="white"/>
<path d="M12.6204 3.4811L11.0844 4.5461C10.5287 4.93138 10.1215 5.21374 9.77375 5.41505C9.60895 5.51046 9.5 5.68305 9.5 5.87348V20.9204C9.5 21.291 9.88398 21.5223 10.1962 21.3226C10.5312 21.1083 10.9149 20.8423 11.3796 20.52L12.9156 19.455C13.4712 19.0698 13.8785 18.7874 14.2262 18.5861C14.3911 18.4907 14.5 18.3181 14.5 18.1277V3.08077C14.5 2.71018 14.116 2.4788 13.8038 2.6785C13.4688 2.89285 13.0851 3.15888 12.6204 3.4811Z" fill="white"/>
<path d="M19.7211 3.12093L18.4269 2.67226C17.7259 2.42923 17.1866 2.24228 16.734 2.12187C16.4387 2.04333 16.167 2.2751 16.167 2.58064V17.7308C16.167 17.9797 16.3507 18.1898 16.5919 18.251C16.9812 18.3497 17.4491 18.5119 18.0903 18.7342C19.6435 19.2727 20.4202 19.542 21.0111 19.2686C21.2209 19.1715 21.4091 19.0304 21.564 18.854C22.0003 18.3575 22.0003 17.506 22.0003 15.8032V6.40988C22.0003 5.2039 22.0003 4.60091 21.6857 4.14695C21.3711 3.69298 20.8211 3.5023 19.7211 3.12093Z" fill="white"/>
</svg>
