<svg width="25" height="24" viewBox="0 0 25 24" fill="none" xmlns="http://www.w3.org/2000/svg">
<g id="Tabbar icon / settings">
<g id="Vector">
<path d="M12.5 1.07129C11.5454 1.07129 10.6311 1.28759 10.0287 1.97324C9.42629 2.65889 9.40695 3.38993 9.37209 3.83472C9.33723 4.27951 9.30822 4.55638 9.24098 4.72789C9.17374 4.89939 9.11828 5.03042 8.69763 5.2737C8.27698 5.51697 8.1361 5.49943 7.95421 5.47201C7.77231 5.44459 7.51855 5.33144 7.11657 5.13928C6.7146 4.94713 6.07274 4.59831 5.17875 4.77808C4.28477 4.95785 3.64057 5.64285 3.16331 6.47091C2.68605 7.29896 2.41598 8.20034 2.70756 9.06576C2.99913 9.93118 3.62153 10.3136 3.98864 10.5662C4.35575 10.8189 4.5805 10.9824 4.69516 11.1265C4.80981 11.2706 4.89544 11.3841 4.89544 11.8707C4.89544 12.3572 4.80981 12.4708 4.69516 12.6149C4.5805 12.7589 4.35575 12.9225 3.98864 13.1751C3.62153 13.4277 2.99913 13.8102 2.70756 14.6756C2.41598 15.541 2.68605 16.4424 3.16331 17.2704C3.64057 18.0985 4.28477 18.7835 5.17875 18.9633C6.07274 19.143 6.7146 18.7942 7.11657 18.6021C7.51855 18.4099 7.77231 18.2967 7.95421 18.2693C8.1361 18.2419 8.27698 18.2244 8.69763 18.4676C9.11828 18.7109 9.17374 18.8419 9.24098 19.0135C9.30822 19.185 9.33723 19.4618 9.37209 19.9066C9.40695 20.3514 9.42629 21.0824 10.0287 21.7681C10.6311 22.4537 11.5454 22.67 12.5 22.67C13.4545 22.67 14.3688 22.4537 14.9712 21.7681C15.5736 21.0824 15.593 20.3514 15.6278 19.9066C15.6627 19.4618 15.6917 19.185 15.7589 19.0135C15.8262 18.8419 15.8816 18.7109 16.3023 18.4676C16.7229 18.2244 16.8638 18.2419 17.0457 18.2693C17.2276 18.2967 17.4814 18.4099 17.8833 18.6021C18.2853 18.7942 18.9272 19.143 19.8212 18.9633C20.7151 18.7835 21.3593 18.0985 21.8366 17.2704C22.3139 16.4424 22.5839 15.541 22.2924 14.6756C22.0008 13.8102 21.3784 13.4277 21.0113 13.1751C20.6442 12.9225 20.4194 12.7589 20.3048 12.6149C20.1901 12.4708 20.1045 12.3572 20.1045 11.8707C20.1045 11.3841 20.1901 11.2706 20.3048 11.1265C20.4194 10.9824 20.6442 10.8189 21.0113 10.5662C21.3784 10.3136 22.0008 9.93118 22.2924 9.06576C22.5839 8.20034 22.3139 7.29896 21.8366 6.47091C21.3593 5.64285 20.7151 4.95785 19.8212 4.77808C18.9272 4.59831 18.2853 4.94713 17.8833 5.13928C17.4814 5.33144 17.2276 5.44459 17.0457 5.47201C16.8638 5.49943 16.7229 5.51697 16.3023 5.2737C15.8816 5.03042 15.8262 4.89939 15.7589 4.72789C15.6917 4.55638 15.6627 4.27951 15.6278 3.83472C15.593 3.38993 15.5736 2.65889 14.9712 1.97324C14.3688 1.28759 13.4545 1.07129 12.5 1.07129ZM12.5008 7.19078C15.0995 7.19078 17.1798 9.27072 17.1798 11.8707C17.1798 14.4706 15.0995 16.5506 12.5008 16.5506C9.90212 16.5506 7.82176 14.4706 7.82176 11.8707C7.82176 9.27072 9.90212 7.19078 12.5008 7.19078Z" fill="white"/>
<path d="M12.5004 8.99037C10.9232 8.99037 9.62086 10.2935 9.62086 11.8695C9.62086 13.4455 10.9232 14.7486 12.5004 14.7486C14.0775 14.7486 15.3799 13.4455 15.3799 11.8695C15.3799 10.2935 14.0775 8.99037 12.5004 8.99037Z" fill="white"/>
</g>
</g>
</svg>
